<svg id="Layer_1" data-name="Layer 1" xmlns="http://www.w3.org/2000/svg" viewBox="0 0 213.29 174.6"><defs><style>.cls-1,.cls-2{fill:none;stroke:#231f20;stroke-miterlimit:10;}.cls-2{stroke-width:0.25px;}.cls-3{fill:#231f20;}</style></defs><title>alinear</title><path class="cls-1" d="M417.75,307.46h-7l-11-18.47-.12-.13-4.89-8.31H363.08l-5,8.44h-6.7l24-40.41h7l11,18.48.12.12,4.89,8.31h31.68l5-8.43h6.7l-.23.38ZM411,307h6.43l23.41-39.4h-5.54l-5,8.43H398.13l-5-8.43-.12-.12-10.9-18.36H375.7l-23.4,39.41h5.54l5-8.44H395l5,8.44.11.12Zm3.22-3.66-8.76-14.81h.06l-5.1-8.59h27.63l-.23.38ZM406.37,289l7.88,13.33L427.2,280.4H401.33l5.09,8.59Zm-13.65-12.84H365.09l13.83-23.4,8.76,14.81h-.06Zm-26.75-.5h25.87l-5.1-8.59h.06l-7.88-13.33Z" transform="translate(-289.94 -218.9)"/><path class="cls-2" d="M396.58,337a59,59,0,1,1,59-59A59.07,59.07,0,0,1,396.58,337Zm0-115a56,56,0,1,0,56,56A56.06,56.06,0,0,0,396.58,222Z" transform="translate(-289.94 -218.9)"/><path class="cls-3" d="M305.82,353.4h4.37l15.42,26h-4l-3.22-5.49h-20.8l-3.23,5.49h-4Zm2.19,2.87L299.29,371h17.43Z" transform="translate(-289.94 -218.9)"/><path class="cls-3" d="M329.59,353.4h3.51v23.09h20.16v2.87H329.59Z" transform="translate(-289.94 -218.9)"/><path class="cls-3" d="M357.12,353.4h3.52v26h-3.52Z" transform="translate(-289.94 -218.9)"/><path class="cls-3" d="M367.41,353.4h5.24l23.77,22.8V353.4h3.52v26H394.7l-23.77-22.81v22.81h-3.52Z" transform="translate(-289.94 -218.9)"/><path class="cls-3" d="M406.6,353.4h25.5v2.87h-22v8.28h21.12v2.87H410.12v9.07h22.12v2.87H406.6Z" transform="translate(-289.94 -218.9)"/><path class="cls-3" d="M450.09,353.4h4.38l15.42,26h-4l-3.23-5.49h-20.8l-3.22,5.49h-4Zm2.19,2.87L443.57,371H461Z" transform="translate(-289.94 -218.9)"/><path class="cls-3" d="M473.65,353.4h20.76c7.49,0,8.68,2.47,8.68,7.35v2.11c0,3.66-2.08,4.67-4.77,4.92v.07c3.58.64,4.44,2.51,4.44,4.87v6.64h-3.29v-5.7c0-4.05-2-4.56-5.17-4.56H477.16v10.26h-3.51ZM494,366.23c3.9,0,5.55-1,5.55-3.76V360.1c0-2.9-1.25-3.83-6.42-3.83h-16v10Z" transform="translate(-289.94 -218.9)"/><path class="cls-3" d="M289.94,393.26l3.27-7.75h2.05l3.28,7.75h-2.29l-.55-1.38h-3l-.55,1.38Zm3.41-3h1.73l-.86-2.18Z" transform="translate(-289.94 -218.9)"/><path class="cls-3" d="M310.29,393.26v-7.7h3.64a3.42,3.42,0,0,1,2.51.83,2.43,2.43,0,0,1,.68,1.79v0a2.4,2.4,0,0,1-1.58,2.38l1.83,2.68h-2.45l-1.55-2.33h-.95v2.33Zm2.13-4h1.42a1.26,1.26,0,0,0,.84-.25.79.79,0,0,0,.31-.66v0a.81.81,0,0,0-.31-.68,1.36,1.36,0,0,0-.85-.24h-1.41Z" transform="translate(-289.94 -218.9)"/><path class="cls-3" d="M337.35,392.3l-1.08,1.19-.84-.76a4.13,4.13,0,0,1-2.35.69,4.06,4.06,0,0,1-2.95-1.16,3.79,3.79,0,0,1-1.18-2.83v0a3.81,3.81,0,0,1,1.19-2.84,4.37,4.37,0,0,1,5.92,0,3.81,3.81,0,0,1,1.18,2.83v0a3.89,3.89,0,0,1-.68,2.21Zm-4.25-.78a2,2,0,0,0,.77-.14l-1.06-.91,1.08-1.21,1,1a2.22,2.22,0,0,0,.13-.77v0a2.08,2.08,0,0,0-.56-1.47,1.94,1.94,0,0,0-2.83,0,2.16,2.16,0,0,0-.55,1.47v0a2.13,2.13,0,0,0,.56,1.48A1.82,1.82,0,0,0,333.1,391.52Z" transform="translate(-289.94 -218.9)"/><path class="cls-3" d="M352.81,393.41a3.69,3.69,0,0,1-2.62-.88,3.45,3.45,0,0,1-.94-2.64v-4.33h2.16v4.28a1.74,1.74,0,0,0,.38,1.23,1.36,1.36,0,0,0,1,.41,1.42,1.42,0,0,0,1.05-.39,1.7,1.7,0,0,0,.38-1.19v-4.34h2.15v4.27a3.49,3.49,0,0,1-1,2.69A3.74,3.74,0,0,1,352.81,393.41Z" transform="translate(-289.94 -218.9)"/><path class="cls-3" d="M368.73,393.26v-7.7h2.14v7.7Z" transform="translate(-289.94 -218.9)"/><path class="cls-3" d="M385.16,393.26v-5.83h-2.3v-1.87h6.74v1.87h-2.31v5.83Z" transform="translate(-289.94 -218.9)"/><path class="cls-3" d="M401.53,393.26v-7.7h6.2v1.81h-4.08v1.17h3.69v1.69h-3.69v1.22h4.13v1.81Z" transform="translate(-289.94 -218.9)"/><path class="cls-3" d="M423.55,393.42a3.93,3.93,0,0,1-4-4v0a3.95,3.95,0,0,1,4.05-4,3.83,3.83,0,0,1,3.27,1.59l-1.61,1.25a2.15,2.15,0,0,0-1.68-.91,1.65,1.65,0,0,0-1.31.6,2.12,2.12,0,0,0-.53,1.45v0a2.16,2.16,0,0,0,.52,1.47,1.7,1.7,0,0,0,1.32.59,1.82,1.82,0,0,0,1-.24,3.22,3.22,0,0,0,.78-.69l1.6,1.14a4.45,4.45,0,0,1-1.4,1.28A4,4,0,0,1,423.55,393.42Z" transform="translate(-289.94 -218.9)"/><path class="cls-3" d="M440.75,393.26v-5.83h-2.3v-1.87h6.74v1.87h-2.31v5.83Z" transform="translate(-289.94 -218.9)"/><path class="cls-3" d="M460.59,393.41a3.68,3.68,0,0,1-2.61-.88,3.45,3.45,0,0,1-.94-2.64v-4.33h2.16v4.28a1.74,1.74,0,0,0,.38,1.23,1.33,1.33,0,0,0,1,.41,1.43,1.43,0,0,0,1.06-.39,1.7,1.7,0,0,0,.37-1.19v-4.34h2.16v4.27a3.52,3.52,0,0,1-.95,2.69A3.77,3.77,0,0,1,460.59,393.41Z" transform="translate(-289.94 -218.9)"/><path class="cls-3" d="M476.47,393.26v-7.7h3.64a3.42,3.42,0,0,1,2.51.83,2.43,2.43,0,0,1,.68,1.79v0a2.4,2.4,0,0,1-1.59,2.38l1.84,2.68H481.1l-1.55-2.33h-.95v2.33Zm2.13-4H480a1.26,1.26,0,0,0,.84-.25.81.81,0,0,0,.3-.66v0a.8.8,0,0,0-.3-.68,1.36,1.36,0,0,0-.85-.24H478.6Z" transform="translate(-289.94 -218.9)"/><path class="cls-3" d="M494.63,393.26l3.26-7.75H500l3.28,7.75h-2.29l-.55-1.38h-3l-.55,1.38Zm3.41-3h1.72l-.85-2.18Z" transform="translate(-289.94 -218.9)"/></svg>