<?xml version="1.0" encoding="utf-8"?>
<!-- Generator: Adobe Illustrator 24.0.1, SVG Export Plug-In . SVG Version: 6.00 Build 0)  -->
<svg version="1.1" id="Layer_1" xmlns="http://www.w3.org/2000/svg" xmlns:xlink="http://www.w3.org/1999/xlink" x="0px" y="0px"
	 viewBox="0 0 213.3 174.6" style="enable-background:new 0 0 213.3 174.6;" xml:space="preserve">
<style type="text/css">
	.st0{fill:#A90095;}
</style>
<title>alinear</title>
<g>
	<g>
		<path class="st0" d="M14.1,77.9V75l12.7-5.9v3l-9.5,4.2l9.5,4.2v3.1L14.1,77.9z"/>
		<path class="st0" d="M39.7,85.8v-1.7c-1,1.1-2.4,2-4.5,2c-2.7,0-5-1.5-5-4.3v-0.1c0-3.1,2.4-4.6,5.7-4.6c1.7,0,2.8,0.2,3.9,0.6
			v-0.3c0-1.9-1.2-3-3.4-3c-1.6,0-2.7,0.3-4,0.9l-0.9-2.6c1.5-0.7,3-1.2,5.3-1.2c4.1,0,6.1,2.2,6.1,5.9v8.3H39.7z M39.8,79.9
			c-0.8-0.3-2-0.6-3.2-0.6c-2,0-3.2,0.8-3.2,2.2v0.1c0,1.3,1.2,2.1,2.7,2.1c2.1,0,3.7-1.2,3.7-2.9V79.9z"/>
		<path class="st0" d="M46.9,66.5h3.2v19.3h-3.2V66.5z"/>
		<path class="st0" d="M54.3,66.6h3.4v3h-3.4V66.6z M54.5,71.8h3.2v14h-3.2V71.8z"/>
		<path class="st0" d="M61.9,71.8h3.2V74c0.9-1.3,2.2-2.5,4.4-2.5c3.2,0,5,2.1,5,5.4v8.9h-3.2v-8c0-2.2-1.1-3.4-3-3.4
			c-1.9,0-3.2,1.3-3.2,3.5v7.9h-3.2V71.8z"/>
		<path class="st0" d="M77.5,78.9L77.5,78.9c0-4.1,2.8-7.3,6.8-7.3c4.5,0,6.7,3.5,6.7,7.5c0,0.3,0,0.6-0.1,0.9H80.7
			c0.3,2.3,2,3.6,4,3.6c1.6,0,2.7-0.6,3.8-1.7l1.9,1.7c-1.3,1.6-3.2,2.6-5.7,2.6C80.7,86.1,77.5,83.2,77.5,78.9z M87.9,77.8
			c-0.2-2.1-1.4-3.7-3.6-3.7c-2,0-3.3,1.5-3.6,3.7H87.9z"/>
		<path class="st0" d="M102.9,85.8v-1.7c-1,1.1-2.4,2-4.5,2c-2.7,0-5-1.5-5-4.3v-0.1c0-3.1,2.4-4.6,5.7-4.6c1.7,0,2.8,0.2,3.9,0.6
			v-0.3c0-1.9-1.2-3-3.4-3c-1.6,0-2.7,0.3-4,0.9l-0.9-2.6c1.5-0.7,3-1.2,5.3-1.2c4.1,0,6.1,2.2,6.1,5.9v8.3H102.9z M102.9,79.9
			c-0.8-0.3-2-0.6-3.2-0.6c-2,0-3.2,0.8-3.2,2.2v0.1c0,1.3,1.2,2.1,2.7,2.1c2.1,0,3.7-1.2,3.7-2.9V79.9z"/>
		<path class="st0" d="M109.9,71.8h3.2V75c0.9-2.1,2.5-3.5,5-3.4v3.4h-0.2c-2.8,0-4.8,1.8-4.8,5.5v5.3h-3.2V71.8z"/>
		<path d="M121.4,66.5h1.3v19.3h-1.3V66.5z"/>
		<path d="M126.8,81.9L126.8,81.9c0-2.9,2.4-4.5,5.9-4.5c1.9,0,3.2,0.2,4.5,0.6v-0.6c0-2.7-1.7-4.1-4.5-4.1c-1.6,0-3,0.5-4.2,1.1
			l-0.5-1.1c1.5-0.7,2.9-1.2,4.8-1.2c1.8,0,3.3,0.5,4.3,1.5c0.9,0.9,1.4,2.1,1.4,3.8v8.4h-1.3v-2.3c-0.9,1.3-2.6,2.6-5.2,2.6
			C129.5,86.1,126.8,84.7,126.8,81.9z M137.2,80.7v-1.5c-1.1-0.3-2.7-0.6-4.6-0.6c-2.9,0-4.5,1.3-4.5,3.2v0.1c0,2,1.9,3.1,3.9,3.1
			C134.8,84.9,137.2,83.2,137.2,80.7z"/>
		<path d="M144.4,82.9v2.9h-1.3V66.5h1.3v8.9c1.2-1.8,2.9-3.3,5.6-3.3c3.3,0,6.6,2.6,6.6,7V79c0,4.4-3.3,7.1-6.6,7.1
			C147.2,86.1,145.5,84.6,144.4,82.9z M155.1,79.1L155.1,79.1c0-3.6-2.5-5.9-5.3-5.9c-2.8,0-5.5,2.4-5.5,5.8v0.1
			c0,3.5,2.7,5.8,5.5,5.8C152.8,84.9,155.1,82.7,155.1,79.1z"/>
		<path d="M159.4,84.1l0.8-1c1.5,1.1,3.1,1.8,4.9,1.8c1.8,0,3.3-1,3.3-2.6v-0.1c0-1.6-1.7-2.2-3.6-2.7c-2.2-0.6-4.6-1.3-4.6-3.7
			v-0.1c0-2.2,1.8-3.7,4.5-3.7c1.6,0,3.4,0.6,4.8,1.5l-0.7,1.1c-1.2-0.8-2.7-1.4-4.2-1.4c-1.9,0-3.1,1-3.1,2.4v0.1
			c0,1.5,1.8,2.1,3.8,2.6c2.2,0.6,4.5,1.4,4.5,3.8v0.1c0,2.4-2.1,3.9-4.7,3.9C163,86.1,160.8,85.3,159.4,84.1z"/>
		<path d="M183.3,64.7h1.3l-12.5,24.5h-1.3L183.3,64.7z"/>
		<path d="M187,82l10.7-5.5L187,71v-1.4l12.3,6.4V77L187,83.4V82z"/>
	</g>
	<g>
		<path class="st0" d="M38.3,93.3h4.5v1h-3.4v1.6h3v1h-3v1.6h3.5v1h-4.5V93.3z"/>
		<path class="st0" d="M43.7,98.5l0.6-0.8c0.6,0.5,1.2,0.8,1.9,0.8c0.7,0,1.1-0.3,1.1-0.8v0c0-0.4-0.2-0.7-1.4-0.9
			c-1.3-0.3-2-0.7-2-1.8v0c0-1,0.9-1.8,2.1-1.8c0.9,0,1.6,0.3,2.2,0.8l-0.6,0.8c-0.5-0.4-1.1-0.6-1.6-0.6c-0.6,0-1,0.3-1,0.7v0
			c0,0.5,0.3,0.7,1.4,1c1.3,0.3,2,0.8,2,1.8v0c0,1.1-0.9,1.8-2.2,1.8C45.4,99.5,44.5,99.2,43.7,98.5z"/>
		<path class="st0" d="M51.1,94.3h-1.9v-1h4.9v1h-1.9v5.1h-1.1V94.3z"/>
		<path class="st0" d="M55.1,96.8v-3.5h1.1v3.5c0,1.1,0.6,1.7,1.5,1.7c0.9,0,1.5-0.6,1.5-1.7v-3.5h1.1v3.4c0,1.8-1,2.7-2.6,2.7
			C56.1,99.5,55.1,98.6,55.1,96.8z"/>
		<path class="st0" d="M61.8,93.3H64c1.9,0,3.2,1.3,3.2,3v0c0,1.7-1.3,3-3.2,3h-2.3V93.3z M64,98.5c1.3,0,2.1-0.9,2.1-2v0
			c0-1.2-0.8-2.1-2.1-2.1h-1.2v4.1H64z"/>
		<path class="st0" d="M68.6,93.3h1.1v6.1h-1.1V93.3z"/>
		<path class="st0" d="M71,96.4L71,96.4c0-1.7,1.3-3.2,3.2-3.2s3.2,1.4,3.2,3.1v0c0,1.7-1.3,3.1-3.2,3.1S71,98.1,71,96.4z
			 M76.3,96.4L76.3,96.4c0-1.2-0.9-2.2-2.1-2.2c-1.2,0-2,1-2,2.1v0c0,1.2,0.9,2.2,2.1,2.2C75.4,98.5,76.3,97.6,76.3,96.4z"/>
		<path class="st0" d="M81.3,93.3h1.1l1.8,2.9l1.8-2.9h1.1v6.1h-1.1v-4.4l-1.9,2.9h0l-1.9-2.8v4.3h-1.1V93.3z"/>
		<path class="st0" d="M88.7,96.8v-3.5h1.1v3.5c0,1.1,0.6,1.7,1.5,1.7c0.9,0,1.5-0.6,1.5-1.7v-3.5h1.1v3.4c0,1.8-1,2.7-2.6,2.7
			C89.7,99.5,88.7,98.6,88.7,96.8z"/>
		<path class="st0" d="M95.4,93.3h1.1v5.1h3.2v1h-4.3V93.3z"/>
		<path class="st0" d="M101.4,94.3h-1.9v-1h4.9v1h-1.9v5.1h-1.1V94.3z"/>
		<path class="st0" d="M105.6,93.3h1.1v6.1h-1.1V93.3z"/>
		<path class="st0" d="M108.3,93.3h2.3c1.9,0,3.2,1.3,3.2,3v0c0,1.7-1.3,3-3.2,3h-2.3V93.3z M110.5,98.5c1.3,0,2.1-0.9,2.1-2v0
			c0-1.2-0.8-2.1-2.1-2.1h-1.2v4.1H110.5z"/>
		<path class="st0" d="M115.1,93.3h1.1v6.1h-1.1V93.3z"/>
		<path class="st0" d="M117.4,98.5l0.6-0.8c0.6,0.5,1.2,0.8,1.9,0.8c0.7,0,1.1-0.3,1.1-0.8v0c0-0.4-0.2-0.7-1.4-0.9
			c-1.3-0.3-2-0.7-2-1.8v0c0-1,0.9-1.8,2.1-1.8c0.9,0,1.6,0.3,2.2,0.8l-0.6,0.8c-0.5-0.4-1.1-0.6-1.7-0.6c-0.6,0-1,0.3-1,0.7v0
			c0,0.5,0.3,0.7,1.4,1c1.3,0.3,2,0.8,2,1.8v0c0,1.1-0.9,1.8-2.2,1.8C119,99.5,118.1,99.2,117.4,98.5z"/>
		<path class="st0" d="M123.1,96.4L123.1,96.4c0-1.7,1.3-3.2,3.1-3.2c1.1,0,1.8,0.4,2.4,0.9l-0.7,0.8c-0.5-0.5-1-0.8-1.7-0.8
			c-1.2,0-2,1-2,2.1v0c0,1.2,0.8,2.2,2,2.2c0.7,0,1.2-0.3,1.7-0.8l0.7,0.7c-0.6,0.7-1.3,1.1-2.5,1.1
			C124.4,99.5,123.1,98.2,123.1,96.4z"/>
		<path class="st0" d="M129.8,93.3h1.1v6.1h-1.1V93.3z"/>
		<path class="st0" d="M132.5,93.3h2.4c1.4,0,2.3,0.8,2.3,2v0c0,1.4-1.1,2.1-2.4,2.1h-1.2v2h-1.1V93.3z M134.8,96.5
			c0.8,0,1.3-0.5,1.3-1.1v0c0-0.7-0.5-1.1-1.3-1.1h-1.2v2.2H134.8z"/>
		<path class="st0" d="M138.3,93.3h1.1v5.1h3.2v1h-4.3V93.3z"/>
		<path class="st0" d="M143.7,93.3h1.1v6.1h-1.1V93.3z"/>
		<path class="st0" d="M146.4,93.3h1l3.3,4.2v-4.2h1v6.1h-0.9l-3.4-4.3v4.3h-1.1V93.3z"/>
		<path class="st0" d="M155.4,93.3h1l2.7,6.1h-1.1l-0.6-1.5h-2.9l-0.6,1.5h-1.1L155.4,93.3z M156.9,97l-1.1-2.4l-1,2.4H156.9z"/>
		<path class="st0" d="M160.1,93.3h2.7c0.8,0,1.4,0.2,1.8,0.6c0.3,0.3,0.5,0.8,0.5,1.3v0c0,1-0.6,1.6-1.5,1.8l1.6,2.3H164l-1.5-2.1
			h-1.3v2.1h-1.1V93.3z M162.7,96.4c0.8,0,1.3-0.4,1.3-1v0c0-0.7-0.5-1-1.3-1h-1.6v2H162.7z"/>
		<path class="st0" d="M166.4,93.3h1.1v6.1h-1.1V93.3z"/>
		<path class="st0" d="M168.9,96.4L168.9,96.4c0-1.7,1.3-3.2,3.2-3.2c1.9,0,3.2,1.4,3.2,3.1v0c0,1.7-1.3,3.1-3.2,3.1
			C170.2,99.5,168.9,98.1,168.9,96.4z M174.1,96.4L174.1,96.4c0-1.2-0.9-2.2-2.1-2.2c-1.2,0-2,1-2,2.1v0c0,1.2,0.9,2.2,2.1,2.2
			C173.3,98.5,174.1,97.6,174.1,96.4z"/>
		<path class="st0" d="M74.6,103.8h2c1.9,0,3.2,1.3,3.2,3v0c0,1.7-1.3,3-3.2,3h-2V103.8z M75,104.2v5.2h1.6c1.7,0,2.8-1.2,2.8-2.6v0
			c0-1.4-1.1-2.6-2.8-2.6H75z"/>
		<path class="st0" d="M83.3,103.7h0.4l2.8,6.1H86l-0.8-1.7h-3.6l-0.8,1.7h-0.5L83.3,103.7z M85.1,107.7l-1.6-3.5l-1.6,3.5H85.1z"/>
		<path class="st0" d="M88.7,104.2h-2.1v-0.4h4.7v0.4h-2.1v5.7h-0.5V104.2z"/>
		<path class="st0" d="M94.2,103.7h0.4l2.8,6.1h-0.5l-0.8-1.7h-3.6l-0.8,1.7h-0.5L94.2,103.7z M96,107.7l-1.6-3.5l-1.6,3.5H96z"/>
		<path class="st0" d="M100.9,109l0.3-0.3c0.7,0.6,1.3,0.9,2.2,0.9c0.9,0,1.5-0.5,1.5-1.2v0c0-0.6-0.3-1-1.7-1.3
			c-1.5-0.3-2-0.8-2-1.7v0c0-0.9,0.8-1.6,2-1.6c0.9,0,1.5,0.2,2.1,0.7l-0.3,0.4c-0.6-0.5-1.1-0.7-1.8-0.7c-0.9,0-1.5,0.5-1.5,1.1v0
			c0,0.6,0.3,1,1.8,1.3c1.4,0.3,2,0.8,2,1.7v0c0,1-0.8,1.7-2,1.7C102.4,109.9,101.7,109.6,100.9,109z"/>
		<path class="st0" d="M106.6,106.8L106.6,106.8c0-1.7,1.3-3.2,3-3.2c1.1,0,1.7,0.4,2.4,1l-0.3,0.3c-0.5-0.5-1.1-0.9-2-0.9
			c-1.5,0-2.6,1.2-2.6,2.7v0c0,1.5,1.1,2.7,2.6,2.7c0.9,0,1.5-0.3,2.1-0.9l0.3,0.3c-0.6,0.6-1.3,1.1-2.4,1.1
			C107.9,109.9,106.6,108.6,106.6,106.8z"/>
		<path class="st0" d="M113.3,103.8h0.5v6.1h-0.5V103.8z"/>
		<path class="st0" d="M115.7,103.8h4.3v0.4h-3.9v2.4h3.5v0.4h-3.5v2.4h3.9v0.4h-4.4V103.8z"/>
		<path class="st0" d="M121.5,103.8h0.4l4.2,5.3v-5.3h0.4v6.1h-0.3l-4.3-5.4v5.4h-0.4V103.8z"/>
		<path class="st0" d="M128.1,106.8L128.1,106.8c0-1.7,1.3-3.2,3-3.2c1.1,0,1.7,0.4,2.4,1l-0.3,0.3c-0.5-0.5-1.1-0.9-2-0.9
			c-1.5,0-2.6,1.2-2.6,2.7v0c0,1.5,1.1,2.7,2.6,2.7c0.9,0,1.5-0.3,2.1-0.9l0.3,0.3c-0.6,0.6-1.3,1.1-2.4,1.1
			C129.3,109.9,128.1,108.6,128.1,106.8z"/>
		<path class="st0" d="M134.7,103.8h4.3v0.4h-3.9v2.4h3.5v0.4h-3.5v2.4h3.9v0.4h-4.4V103.8z"/>
		<path class="st0" d="M61.6,114.2H62l2.4,3.6l2.4-3.6h0.4v6.1h-0.5V115l-2.4,3.5h0L62,115v5.3h-0.4V114.2z"/>
		<path class="st0" d="M71.5,114.1h0.4l2.8,6.1h-0.5l-0.8-1.7h-3.6l-0.8,1.7h-0.5L71.5,114.1z M73.3,118.1l-1.6-3.5l-1.6,3.5H73.3z"
			/>
		<path class="st0" d="M75.4,117.2L75.4,117.2c0-1.7,1.3-3.2,3-3.2c1.1,0,1.7,0.4,2.4,1l-0.3,0.3c-0.5-0.5-1.1-0.9-2-0.9
			c-1.5,0-2.6,1.2-2.6,2.7v0c0,1.5,1.1,2.7,2.6,2.7c0.9,0,1.5-0.3,2.1-0.9l0.3,0.3c-0.6,0.6-1.3,1.1-2.4,1.1
			C76.7,120.4,75.4,119,75.4,117.2z"/>
		<path class="st0" d="M82.1,114.2h0.5v2.8h3.9v-2.8h0.5v6.1h-0.5v-2.8h-3.9v2.8h-0.5V114.2z"/>
		<path class="st0" d="M88.7,114.2h0.5v6.1h-0.5V114.2z"/>
		<path class="st0" d="M91,114.2h0.4l4.2,5.3v-5.3h0.4v6.1h-0.3l-4.3-5.4v5.4H91V114.2z"/>
		<path class="st0" d="M97.9,114.2h4.3v0.4h-3.9v2.4h3.5v0.4h-3.5v2.4h3.9v0.4h-4.4V114.2z"/>
		<path class="st0" d="M106.3,114.2h0.5v5.7h3.6v0.4h-4V114.2z"/>
		<path class="st0" d="M111.7,114.2h4.3v0.4h-3.9v2.4h3.5v0.4h-3.5v2.4h3.9v0.4h-4.4V114.2z"/>
		<path class="st0" d="M119.8,114.1h0.4l2.8,6.1h-0.5l-0.8-1.7h-3.6l-0.8,1.7H117L119.8,114.1z M121.6,118.1l-1.6-3.5l-1.6,3.5
			H121.6z"/>
		<path class="st0" d="M124.3,114.2h2.6c0.7,0,1.3,0.2,1.7,0.6c0.3,0.3,0.5,0.7,0.5,1.1v0c0,1-0.8,1.6-1.8,1.7l2,2.6h-0.6l-1.9-2.5
			h-2v2.5h-0.5V114.2z M126.8,117.3c1,0,1.8-0.5,1.8-1.4v0c0-0.8-0.6-1.3-1.7-1.3h-2.1v2.7H126.8z"/>
		<path class="st0" d="M130.6,114.2h0.4l4.2,5.3v-5.3h0.4v6.1h-0.3l-4.3-5.4v5.4h-0.4V114.2z"/>
		<path class="st0" d="M137.5,114.2h0.5v6.1h-0.5V114.2z"/>
		<path class="st0" d="M139.8,114.2h0.4l4.2,5.3v-5.3h0.4v6.1h-0.3l-4.3-5.4v5.4h-0.4V114.2z"/>
		<path class="st0" d="M146.4,117.2L146.4,117.2c0-1.7,1.2-3.2,3-3.2c1,0,1.6,0.3,2.2,0.8l-0.3,0.3c-0.5-0.4-1-0.7-2-0.7
			c-1.5,0-2.5,1.3-2.5,2.7v0c0,1.6,1,2.7,2.6,2.7c0.8,0,1.5-0.3,1.9-0.7v-1.7h-2v-0.4h2.5v2.3c-0.5,0.5-1.4,0.9-2.4,0.9
			C147.6,120.4,146.4,118.9,146.4,117.2z"/>
		<path class="st0" d="M52.7,124.5h0.4l2.8,6.1h-0.5l-0.8-1.7h-3.6l-0.8,1.7h-0.5L52.7,124.5z M54.5,128.5l-1.6-3.5l-1.6,3.5H54.5z"
			/>
		<path class="st0" d="M57.2,124.6h2.6c0.7,0,1.3,0.2,1.7,0.6c0.3,0.3,0.5,0.7,0.5,1.1v0c0,1-0.8,1.6-1.8,1.7l2,2.6h-0.6l-1.9-2.5
			h-2v2.5h-0.5V124.6z M59.7,127.7c1,0,1.8-0.5,1.8-1.4v0c0-0.8-0.6-1.3-1.7-1.3h-2.1v2.7H59.7z"/>
		<path class="st0" d="M63.2,127.6L63.2,127.6c0-1.7,1.3-3.2,3-3.2c1.1,0,1.7,0.4,2.4,1l-0.3,0.3c-0.5-0.5-1.1-0.9-2-0.9
			c-1.5,0-2.6,1.2-2.6,2.7v0c0,1.5,1.1,2.7,2.6,2.7c0.9,0,1.5-0.3,2.1-0.9l0.3,0.3c-0.6,0.6-1.3,1.1-2.4,1.1
			C64.5,130.8,63.2,129.4,63.2,127.6z"/>
		<path class="st0" d="M69.9,124.6h0.5v2.8h3.9v-2.8h0.5v6.1h-0.5v-2.8h-3.9v2.8h-0.5V124.6z"/>
		<path class="st0" d="M76.5,124.6H77v6.1h-0.5V124.6z"/>
		<path class="st0" d="M80.6,125h-2.1v-0.4h4.7v0.4H81v5.7h-0.5V125z"/>
		<path class="st0" d="M84.5,124.6h4.3v0.4h-3.9v2.4h3.5v0.4h-3.5v2.4h3.9v0.4h-4.4V124.6z"/>
		<path class="st0" d="M90,127.6L90,127.6c0-1.7,1.3-3.2,3-3.2c1.1,0,1.7,0.4,2.4,1l-0.3,0.3c-0.5-0.5-1.1-0.9-2-0.9
			c-1.5,0-2.6,1.2-2.6,2.7v0c0,1.5,1.1,2.7,2.6,2.7c0.9,0,1.5-0.3,2.1-0.9l0.3,0.3c-0.6,0.6-1.3,1.1-2.4,1.1
			C91.3,130.8,90,129.4,90,127.6z"/>
		<path class="st0" d="M98.4,125h-2.1v-0.4h4.7v0.4h-2.1v5.7h-0.5V125z"/>
		<path class="st0" d="M102.2,128.1v-3.6h0.5v3.5c0,1.4,0.8,2.3,2.1,2.3c1.2,0,2-0.7,2-2.2v-3.6h0.5v3.5c0,1.7-1,2.7-2.5,2.7
			C103.3,130.8,102.2,129.8,102.2,128.1z"/>
		<path class="st0" d="M108.9,124.6h2.6c0.7,0,1.3,0.2,1.7,0.6c0.3,0.3,0.5,0.7,0.5,1.1v0c0,1-0.8,1.6-1.8,1.7l2,2.6h-0.6l-1.9-2.5
			h-2v2.5h-0.5V124.6z M111.4,127.7c1,0,1.8-0.5,1.8-1.4v0c0-0.8-0.6-1.3-1.7-1.3h-2.1v2.7H111.4z"/>
		<path class="st0" d="M115.2,124.6h4.3v0.4h-3.9v2.4h3.5v0.4h-3.5v2.4h3.9v0.4h-4.4V124.6z"/>
		<path class="st0" d="M126.6,123.7h0.4l-4.1,8h-0.4L126.6,123.7z"/>
		<path class="st0" d="M130.5,124.6h2c1.9,0,3.2,1.3,3.2,3v0c0,1.7-1.3,3-3.2,3h-2V124.6z M131,125v5.2h1.6c1.7,0,2.8-1.2,2.8-2.6v0
			c0-1.4-1.1-2.6-2.8-2.6H131z"/>
		<path class="st0" d="M137.3,124.6h4.3v0.4h-3.9v2.4h3.5v0.4h-3.5v2.4h3.9v0.4h-4.4V124.6z"/>
		<path class="st0" d="M142.8,129.8l0.3-0.3c0.7,0.6,1.3,0.9,2.2,0.9c0.9,0,1.5-0.5,1.5-1.2v0c0-0.6-0.3-1-1.7-1.3
			c-1.5-0.3-2-0.8-2-1.7v0c0-0.9,0.8-1.6,2-1.6c0.9,0,1.5,0.2,2.1,0.7l-0.3,0.4c-0.6-0.5-1.1-0.7-1.8-0.7c-0.9,0-1.5,0.5-1.5,1.1v0
			c0,0.6,0.3,1,1.8,1.3c1.4,0.3,2,0.8,2,1.7v0c0,1-0.8,1.7-2,1.7C144.2,130.7,143.5,130.4,142.8,129.8z"/>
		<path class="st0" d="M148.8,124.6h0.5v6.1h-0.5V124.6z"/>
		<path class="st0" d="M150.8,127.6L150.8,127.6c0-1.7,1.2-3.2,3-3.2c1,0,1.6,0.3,2.2,0.8l-0.3,0.3c-0.5-0.4-1-0.7-2-0.7
			c-1.5,0-2.5,1.3-2.5,2.7v0c0,1.6,1,2.7,2.6,2.7c0.8,0,1.5-0.3,1.9-0.7v-1.7h-2v-0.4h2.5v2.3c-0.5,0.5-1.4,0.9-2.4,0.9
			C151.9,130.8,150.8,129.3,150.8,127.6z"/>
		<path class="st0" d="M157.9,124.6h0.4l4.2,5.3v-5.3h0.4v6.1h-0.3l-4.3-5.4v5.4h-0.4V124.6z"/>
	</g>
</g>
</svg>
